<svg width="50" height="47" viewBox="0 0 50 47" fill="none" xmlns="http://www.w3.org/2000/svg">
<path d="M25 46.1558C38.8071 46.1558 50 35.8235 50 23.0779C50 10.3323 38.8071 0 25 0C11.1929 0 0 10.3323 0 23.0779C0 35.8235 11.1929 46.1558 25 46.1558Z" fill="#3C5A99"/>
<path d="M26.9434 34.6169V24.1056H30.7813L31.3574 19.9904H26.9434V17.3716C26.9434 16.1816 27.2998 15.3748 29.1455 15.3748H31.4844V11.7058C31.0791 11.6562 29.6826 11.5435 28.0566 11.5435C24.6631 11.5435 22.3389 13.4547 22.3389 16.9659V19.9949H18.5156V24.1102H22.3389V34.6169H26.9434Z" fill="white"/>
</svg>
