<svg width="40" height="39" viewBox="0 0 40 39" fill="none" xmlns="http://www.w3.org/2000/svg">
<path d="M20 38.8467C31.0457 38.8467 40 30.1505 40 19.4233C40 8.69612 31.0457 0 20 0C8.9543 0 0 8.69612 0 19.4233C0 30.1505 8.9543 38.8467 20 38.8467Z" fill="#488CFE"/>
<path d="M20.1992 18.0349V21.3657H25.8711C25.6406 22.7959 24.1562 25.5538 20.1992 25.5538C16.7852 25.5538 14 22.811 14 19.4233C14 16.0356 16.7891 13.2928 20.1992 13.2928C22.1406 13.2928 23.4414 14.0933 24.1875 14.7875L26.8984 12.2496C25.1562 10.6715 22.8984 9.71167 20.1992 9.71167C14.6719 9.71167 10.1992 14.0554 10.1992 19.4233C10.1992 24.7913 14.6719 29.135 20.1992 29.135C25.9727 29.135 29.8008 25.1934 29.8008 19.6434C29.8008 19.006 29.7305 18.5167 29.6445 18.0349H20.1992Z" fill="white"/>
</svg>
