<svg width="50" height="48" viewBox="0 0 50 48" fill="none" xmlns="http://www.w3.org/2000/svg">
<path d="M25 47.0978C38.8071 47.0978 50 36.5546 50 23.5489C50 10.5432 38.8071 0 25 0C11.1929 0 0 10.5432 0 23.5489C0 36.5546 11.1929 47.0978 25 47.0978Z" fill="#4285F4"/>
<path d="M25.249 21.8655V25.9037H32.3389C32.0508 27.6377 30.1953 30.9815 25.249 30.9815C20.9814 30.9815 17.5 27.6561 17.5 23.5489C17.5 19.4416 20.9863 16.1162 25.249 16.1162C27.6758 16.1162 29.3018 17.0867 30.2344 17.9284L33.623 14.8514C31.4453 12.9381 28.623 11.7744 25.249 11.7744C18.3398 11.7744 12.749 17.0407 12.749 23.5489C12.749 30.057 18.3398 35.3233 25.249 35.3233C32.4658 35.3233 37.251 30.5445 37.251 23.8156C37.251 23.0429 37.1631 22.4496 37.0557 21.8655H25.249Z" fill="white"/>
</svg>
