<svg width="50" height="51" viewBox="0 0 50 51" fill="none" xmlns="http://www.w3.org/2000/svg">
<path d="M25 50.4044C38.8071 50.4044 50 39.121 50 25.2022C50 11.2834 38.8071 0 25 0C11.1929 0 0 11.2834 0 25.2022C0 39.121 11.1929 50.4044 25 50.4044Z" fill="#4285F4"/>
<path d="M25.249 23.4006V27.7224H32.3389C32.0508 29.5781 30.1953 33.1566 25.249 33.1566C20.9814 33.1566 17.5 29.5978 17.5 25.2022C17.5 20.8065 20.9863 17.2477 25.249 17.2477C27.6758 17.2477 29.3018 18.2863 30.2344 19.1871L33.623 15.8941C31.4453 13.8464 28.623 12.6011 25.249 12.6011C18.3398 12.6011 12.749 18.2371 12.749 25.2022C12.749 32.1672 18.3398 37.8033 25.249 37.8033C32.4658 37.8033 37.251 32.689 37.251 25.4877C37.251 24.6607 37.1631 24.0257 37.0557 23.4006H25.249Z" fill="white"/>
</svg>
