<svg width="50" height="51" viewBox="0 0 50 51" fill="none" xmlns="http://www.w3.org/2000/svg">
<path d="M25 50.4044C38.8071 50.4044 50 39.121 50 25.2022C50 11.2834 38.8071 0 25 0C11.1929 0 0 11.2834 0 25.2022C0 39.121 11.1929 50.4044 25 50.4044Z" fill="#EC1F82"/>
<path d="M15.8333 17.2269V33.1774C15.8333 33.8773 16.3947 34.443 17.0887 34.443H32.9113C33.6056 34.443 34.1667 33.8771 34.1667 33.1774V17.2269C34.1667 16.527 33.6053 15.9614 32.9113 15.9614H17.0887C16.3944 15.9614 15.8333 16.5272 15.8333 17.2269ZM12.5 17.2269C12.5 14.6717 14.5532 12.6011 17.0887 12.6011H32.9113C35.446 12.6011 37.5 14.6709 37.5 17.2269V33.1774C37.5 35.7326 35.4468 37.8033 32.9113 37.8033H17.0887C14.554 37.8033 12.5 35.7335 12.5 33.1774V17.2269Z" fill="white"/>
<path d="M25.4167 31.0826C22.4251 31.0826 20 28.6378 20 25.6221C20 22.6064 22.4251 20.1616 25.4167 20.1616C28.4082 20.1616 30.8333 22.6064 30.8333 25.6221C30.8333 28.6378 28.4082 31.0826 25.4167 31.0826ZM25.4167 27.7223C26.5673 27.7223 27.5 26.782 27.5 25.6221C27.5 24.4622 26.5673 23.5219 25.4167 23.5219C24.2661 23.5219 23.3333 24.4622 23.3333 25.6221C23.3333 26.782 24.2661 27.7223 25.4167 27.7223Z" fill="white"/>
<path d="M31.25 20.1618C31.9404 20.1618 32.5 19.5976 32.5 18.9017C32.5 18.2058 31.9404 17.6416 31.25 17.6416C30.5596 17.6416 30 18.2058 30 18.9017C30 19.5976 30.5596 20.1618 31.25 20.1618Z" fill="white"/>
</svg>
