<svg width="50" height="50" viewBox="0 0 50 50" fill="none" xmlns="http://www.w3.org/2000/svg">
<path d="M25 49.3963C38.8071 49.3963 50 38.3385 50 24.6981C50 11.0577 38.8071 0 25 0C11.1929 0 0 11.0577 0 24.6981C0 38.3385 11.1929 49.3963 25 49.3963Z" fill="#3C5A99"></path>
<path d="M26.9434 37.0473V25.7981H30.7813L31.3574 21.3939H26.9434V18.5912C26.9434 17.3177 27.2998 16.4543 29.1455 16.4543H31.4844V12.5277C31.0791 12.4746 29.6826 12.354 28.0566 12.354C24.6631 12.354 22.3389 14.3993 22.3389 18.1571V21.3987H18.5156V25.8029H22.3389V37.0473H26.9434Z" fill="white"></path>
</svg>
