<svg width="50" height="49" viewBox="0 0 50 49" fill="none" xmlns="http://www.w3.org/2000/svg">
<path d="M25 49C38.8071 49 50 38.031 50 24.5C50 10.969 38.8071 0 25 0C11.1929 0 0 10.969 0 24.5C0 38.031 11.1929 49 25 49Z" fill="#4285F4"></path>
<path d="M25.249 22.7486V26.95H32.3389C32.0508 28.754 30.1953 32.2328 25.249 32.2328C20.9814 32.2328 17.5 28.7731 17.5 24.5C17.5 20.2268 20.9863 16.7672 25.249 16.7672C27.6758 16.7672 29.3018 17.7768 30.2344 18.6525L33.623 15.4512C31.4453 13.4606 28.623 12.25 25.249 12.25C18.3398 12.25 12.749 17.729 12.749 24.5C12.749 31.271 18.3398 36.75 25.249 36.75C32.4658 36.75 37.251 31.7782 37.251 24.7775C37.251 23.9736 37.1631 23.3563 37.0557 22.7486H25.249Z" fill="white"></path>
</svg>
