<svg width="40" height="39" viewBox="0 0 40 39" fill="none" xmlns="http://www.w3.org/2000/svg">
<path d="M20 38.8467C31.0457 38.8467 40 30.1505 40 19.4233C40 8.69612 31.0457 0 20 0C8.9543 0 0 8.69612 0 19.4233C0 30.1505 8.9543 38.8467 20 38.8467Z" fill="#3C5A99"></path>
<path d="M21.5547 29.135V20.2883H24.625L25.0859 16.8247H21.5547V14.6206C21.5547 13.6191 21.8398 12.94 23.3164 12.94H25.1875V9.85202C24.8633 9.81029 23.7461 9.71545 22.4453 9.71545C19.7305 9.71545 17.8711 11.3239 17.8711 14.2792V16.8285H14.8125V20.2921H17.8711V29.135H21.5547Z" fill="white"></path>
</svg>
