<svg width="50" height="48" viewBox="0 0 50 48" fill="none" xmlns="http://www.w3.org/2000/svg">
<path d="M25 47.0978C38.8071 47.0978 50 36.5546 50 23.5489C50 10.5432 38.8071 0 25 0C11.1929 0 0 10.5432 0 23.5489C0 36.5546 11.1929 47.0978 25 47.0978Z" fill="#EC1F82"></path>
<path d="M15.8333 16.0968V31.0009C15.8333 31.6549 16.3947 32.1834 17.0887 32.1834H32.9113C33.6056 32.1834 34.1667 31.6547 34.1667 31.0009V16.0968C34.1667 15.4428 33.6053 14.9143 32.9113 14.9143H17.0887C16.3944 14.9143 15.8333 15.443 15.8333 16.0968ZM12.5 16.0968C12.5 13.7092 14.5532 11.7744 17.0887 11.7744H32.9113C35.446 11.7744 37.5 13.7084 37.5 16.0968V31.0009C37.5 33.3885 35.4468 35.3233 32.9113 35.3233H17.0887C14.554 35.3233 12.5 33.3893 12.5 31.0009V16.0968Z" fill="white"></path>
<path d="M25.4167 29.0436C22.4251 29.0436 20 26.7592 20 23.9413C20 21.1234 22.4251 18.8391 25.4167 18.8391C28.4082 18.8391 30.8333 21.1234 30.8333 23.9413C30.8333 26.7592 28.4082 29.0436 25.4167 29.0436ZM25.4167 25.9037C26.5673 25.9037 27.5 25.0251 27.5 23.9413C27.5 22.8575 26.5673 21.9789 25.4167 21.9789C24.2661 21.9789 23.3333 22.8575 23.3333 23.9413C23.3333 25.0251 24.2661 25.9037 25.4167 25.9037Z" fill="white"></path>
<path d="M31.25 18.8391C31.9404 18.8391 32.5 18.3119 32.5 17.6616C32.5 17.0114 31.9404 16.4842 31.25 16.4842C30.5596 16.4842 30 17.0114 30 17.6616C30 18.3119 30.5596 18.8391 31.25 18.8391Z" fill="white"></path>
</svg>
