<svg width="40" height="41" viewBox="0 0 40 41" fill="none" xmlns="http://www.w3.org/2000/svg">
<path d="M20 40.5714C31.0457 40.5714 40 31.4892 40 20.2857C40 9.08222 31.0457 0 20 0C8.9543 0 0 9.08222 0 20.2857C0 31.4892 8.9543 40.5714 20 40.5714Z" fill="#488CFE"></path>
<path d="M20.1999 18.8356V22.3143H25.8718C25.6413 23.808 24.1569 26.6884 20.1999 26.6884C16.7858 26.6884 14.0007 23.8239 14.0007 20.2857C14.0007 16.7476 16.7897 13.8831 20.1999 13.8831C22.1413 13.8831 23.4421 14.7191 24.1882 15.4441L26.8991 12.7935C25.1569 11.1453 22.8991 10.1429 20.1999 10.1429C14.6725 10.1429 10.1999 14.6794 10.1999 20.2857C10.1999 25.892 14.6725 30.4286 20.1999 30.4286C25.9733 30.4286 29.8015 26.312 29.8015 20.5155C29.8015 19.8499 29.7311 19.3388 29.6452 18.8356H20.1999Z" fill="white"></path>
</svg>
